<?xml version="1.0" encoding="utf-8"?>
<!-- Generator: Adobe Illustrator 24.1.0, SVG Export Plug-In . SVG Version: 6.00 Build 0)  -->
<svg version="1.1" id="Layer_1" xmlns="http://www.w3.org/2000/svg" xmlns:xlink="http://www.w3.org/1999/xlink" x="0px" y="0px"
	 viewBox="0 0 1200 1200" style="enable-background:new 0 0 1200 1200;" xml:space="preserve">
<style type="text/css">
	.st0{fill:#E1776B;}
	.st1{fill:#5F8881;}
	.st2{fill:#1C243A;}
	.st3{fill:url(#SVGID_1_);}
	.st4{fill:url(#SVGID_2_);}
	.st5{fill:#241E2D;}
	.st6{fill:none;}
	.st7{fill:url(#SVGID_3_);}
	.st8{fill:url(#SVGID_4_);}
	.st9{fill:#EFD7D5;}
</style>
<g>
	<g>
		<g>
			<path class="st0" d="M307.3,745.9c-6.3-5.9-14.4-8.8-24.3-8.8h-42c-1.7,0-3,0.3-3.7,1c-0.7,0.7-1.1,1.5-1.1,2.6
				c0,1.1,0.4,2,1.1,2.6c0.7,0.7,2,1,3.7,1h9.7v86.3h-9.7c-1.7,0-3,0.3-3.7,1c-0.7,0.7-1.1,1.5-1.1,2.6c0,1,0.4,1.9,1.1,2.6
				c0.7,0.7,2,1,3.7,1h41.8c1.7,0,3-0.3,3.7-1c0.7-0.7,1.1-1.5,1.1-2.6c0-1.1-0.4-2-1.1-2.6c-0.7-0.7-2-1-3.7-1h-24.8v-34.1h22.6
				c4.9,0,9.1-0.5,12.4-1.6c4.6-1.5,9-3.8,13.4-7.1c2.9-2.1,5.3-5.1,7.4-8.8c2-3.7,3.1-7.9,3.1-12.6
				C316.7,758.6,313.6,751.7,307.3,745.9z M306.3,777c-2.1,3.4-5.6,6.4-10.2,8.7c-4.7,2.4-9.7,3.6-15,3.6h-23.1v-45h25.8
				c7.5,0,13.6,2.3,18.5,6.8c4.9,4.5,7.3,9.6,7.3,15.3C309.5,770,308.4,773.5,306.3,777z"/>
			<path class="st0" d="M418.9,737.1h-19.8c-1.8,0-3,0.3-3.8,1c-0.7,0.7-1.1,1.5-1.1,2.6c0,1.1,0.4,2,1.1,2.6c0.7,0.7,2,1,3.8,1h7.1
				l-26.4,40.7l-27-40.7h7.1c1.7,0,3-0.3,3.7-1c0.7-0.7,1.1-1.5,1.1-2.6c0-1.1-0.4-2-1.1-2.6c-0.7-0.7-2-1-3.7-1h-19.9
				c-1.7,0-3,0.3-3.7,1c-0.7,0.7-1.1,1.5-1.1,2.6c0,1.1,0.4,2,1.1,2.6c0.7,0.7,2,1,3.7,1h4.3l31.8,48.1v38.2h-18.8
				c-1.8,0-3,0.3-3.7,1c-0.7,0.7-1.1,1.5-1.1,2.6c0,1,0.4,1.9,1.1,2.6c0.7,0.7,2,1,3.7,1h44.9c1.7,0,3-0.3,3.7-1
				c0.7-0.7,1.1-1.5,1.1-2.6c0-1.1-0.4-2-1.1-2.6c-0.7-0.7-2-1-3.7-1h-18.8v-38.2l31.3-48.1h4.3c1.7,0,3-0.3,3.7-1
				c0.7-0.7,1.1-1.5,1.1-2.6c0-1.1-0.4-2-1.1-2.6C421.8,737.4,420.6,737.1,418.9,737.1z"/>
			<path class="st0" d="M523.7,815.4c-1.2,0-2.3,0.6-3.3,1.8c-4.6,5.5-9.3,9.5-14.3,12.2c-4.9,2.7-10.5,4-16.7,4
				c-10.3,0-19.4-4-27.2-11.9c-7.8-8-11.7-17.3-11.7-28.1v-12.7c0-5.1,0.8-9.6,2.4-13.6c2.2-5.5,5.3-10.4,9-14.9
				c2.2-2.6,5.1-4.8,8.8-6.5c4.9-2.5,10.2-3.7,15.8-3.7c8.5,0,16.1,2.6,22.7,7.7c4.9,3.7,7.5,8,7.8,12.8c0.1,1.5,0.5,2.7,1.2,3.4
				c0.7,0.7,1.5,1,2.5,1c1.1,0,2-0.4,2.6-1.1c0.7-0.7,1-2,1-3.8v-20.1c0-1.7-0.3-3-1-3.7c-0.7-0.7-1.5-1.1-2.6-1.1
				c-1.1,0-2,0.4-2.6,1.1c-0.7,0.7-1,2-1,3.7v5.1c-8.6-8.2-18.9-12.2-30.8-12.2c-7.8,0-14.9,2-21.6,6c-6.6,4-11.9,9.7-15.7,17.1
				c-3.8,7.4-5.7,14.7-5.7,21.8v14.7c0,5,0.7,9.6,2.1,13.7c1.4,4.2,4.1,8.7,8.1,13.6c3.9,4.9,7.2,8.4,9.9,10.5s6.1,3.9,10.2,5.4
				c5.4,2,10.7,3,15.9,3c6,0,12-1.3,17.9-4c5.9-2.7,11.2-6.6,15.9-11.9c2.5-2.7,3.7-4.7,3.7-6c0-1-0.3-1.8-0.9-2.4
				C525.6,815.7,524.7,815.4,523.7,815.4z"/>
			<path class="st0" d="M613.3,741.7c-6.8-4.6-14.2-6.9-22-6.9c-11.7,0-21.9,4.9-30.8,14.8s-13.3,22.6-13.3,38.2
				c0,15.5,4.4,28.2,13.3,38.1c8.9,9.9,19.1,14.9,30.8,14.9c7.9,0,15.2-2.3,22.1-6.9c6.9-4.6,12.2-11,16.2-19.2
				c3.9-8.2,5.9-17.2,5.9-26.8c0-9.7-2-18.7-5.9-26.9C625.6,752.7,620.2,746.3,613.3,741.7z M617.8,819.5c-6.8,9.3-15.7,14-26.5,14
				c-9.5,0-18-4.3-25.5-12.8c-7.5-8.5-11.3-19.5-11.3-32.9c0-12.6,3.6-23.4,10.8-32.3c7.2-8.9,15.9-13.4,26.1-13.4
				c10.9,0,19.7,4.7,26.5,14c6.8,9.4,10.2,19.9,10.2,31.7C628.1,799.6,624.6,810.2,617.8,819.5z"/>
			<path class="st0" d="M742.3,738.1c-0.7-0.7-2-1-3.7-1h-26.7c-1.8,0-3,0.3-3.7,1c-0.7,0.7-1.1,1.5-1.1,2.6c0,1.1,0.4,2,1.1,2.6
				c0.7,0.7,2,1,3.7,1h13.4v83.1l-53.4-90.3h-18.9c-1.7,0-3,0.3-3.7,1c-0.7,0.7-1.1,1.5-1.1,2.6c0,1.1,0.4,2,1.1,2.6
				c0.7,0.7,2,1,3.7,1h9.7v86.3h-6c-1.8,0-3,0.3-3.8,1c-0.7,0.7-1.1,1.5-1.1,2.6c0,1,0.4,1.9,1.1,2.6c0.7,0.7,2,1,3.8,1h26.6
				c1.8,0,3-0.3,3.8-1c0.7-0.7,1.1-1.5,1.1-2.6c0-1.1-0.4-2-1.1-2.6c-0.7-0.7-2-1-3.8-1h-13.4v-82.9l53.3,90.2h9.3v-93.5h6.1
				c1.7,0,3-0.3,3.7-1c0.7-0.7,1.1-1.5,1.1-2.6C743.4,739.6,743,738.8,742.3,738.1z"/>
		</g>
		<g>
			<path class="st1" d="M814.6,825.5h51.7v-2.5c0-1.5,0.3-2.6,1-3.3c0.6-0.7,1.5-1,2.5-1c1,0,1.8,0.3,2.4,1c0.6,0.7,1,1.8,1,3.3v9
				H808v-9.5c13.7-11.8,27-23.8,39.9-36c6-5.7,10.2-9.9,12.4-12.5s3.8-5,4.6-7c0.8-2,1.2-4.1,1.2-6.1c0-5.5-2.3-10.4-7-14.7
				s-10.3-6.4-16.8-6.4c-5.9,0-11.1,1.6-15.6,4.8c-4.5,3.2-7.5,7.2-8.8,12c-0.3,1.2-0.7,2-1.2,2.4c-0.6,0.5-1.4,0.8-2.2,0.8
				c-0.9,0-1.7-0.3-2.3-0.9s-0.9-1.3-0.9-2.1c0-2.5,1.4-5.8,4.2-10c2.8-4.2,6.7-7.5,11.6-9.9c4.9-2.4,10-3.6,15.2-3.6
				c8.4,0,15.6,2.8,21.6,8.4c6,5.6,9.1,11.9,9.1,19c0,3-0.5,5.7-1.5,8.2c-1,2.5-2.7,5.2-5.2,8.1c-2.4,2.9-6.8,7.4-13.1,13.3
				c-15.8,15-28.7,26.6-38.6,34.8L814.6,825.5L814.6,825.5z"/>
			<path class="st1" d="M972.9,775.7v16c0,13.9-3.4,24.9-10.3,33c-5.4,6.4-12.2,9.5-20.4,9.5c-4,0-7.7-0.8-11.2-2.3
				c-3.5-1.5-6.5-3.6-8.9-6.3c-1.5-1.7-3.2-4.4-5.1-8.1c-1.8-3.7-3.2-7.2-4-10.3c-1.2-4.4-1.8-9.6-1.8-15.4v-16
				c0-13.9,3.4-24.9,10.3-33c5.4-6.4,12.2-9.5,20.4-9.5c4,0,7.7,0.8,11.2,2.3c3.5,1.5,6.4,3.6,8.9,6.3c1.6,1.7,3.3,4.5,5.1,8.2
				c1.8,3.7,3.2,7.1,4,10.2C972.3,764.6,972.9,769.8,972.9,775.7z M966.2,776.6c0-6.1-0.9-11.8-2.7-17c-1.8-5.3-3.8-9.4-6-12.6
				c-1.3-1.8-3.1-3.3-5.2-4.6c-3-1.8-6.5-2.7-10.3-2.7c-7.5,0-13.4,3.7-17.7,11.1c-4.3,7.4-6.4,16-6.4,25.8v14.2
				c0,6.1,0.9,11.8,2.7,17.1c1.8,5.3,3.8,9.5,6.1,12.6c1.3,1.7,3,3.3,5.1,4.5c3,1.8,6.5,2.8,10.3,2.8c7.5,0,13.4-3.7,17.6-11.1
				c4.3-7.4,6.4-16,6.4-25.9L966.2,776.6L966.2,776.6z"/>
		</g>
	</g>
	<g>
		<path class="st2" d="M244.1,897.6v-35.4h-4c-0.7,0-1.2-0.1-1.5-0.4c-0.3-0.3-0.5-0.6-0.5-1.1c0-0.4,0.2-0.8,0.5-1.1
			c0.3-0.3,0.8-0.4,1.5-0.4h18.7c3.7,0,6.7,1.1,9,3.2c2.3,2.1,3.5,4.6,3.5,7.5c0,3.6-1.9,6.6-5.8,8.8c3.1,1.1,5.3,2.6,6.8,4.4
			c1.4,1.8,2.2,3.9,2.2,6.1c0,2-0.5,3.8-1.4,5.4c-0.9,1.6-2.4,3-4.3,4.2c-1.9,1.2-4.1,1.7-6.3,1.7h-22.2c-0.7,0-1.2-0.1-1.5-0.4
			c-0.3-0.3-0.5-0.6-0.5-1.1c0-0.4,0.2-0.8,0.5-1.1c0.3-0.3,0.8-0.4,1.5-0.4L244.1,897.6L244.1,897.6z M247.1,877.6h10.5
			c2.2,0,4.3-0.4,6.2-1.2c1.4-0.7,2.6-1.6,3.4-2.9s1.2-2.5,1.2-3.8c0-1.9-0.9-3.6-2.6-5.1c-1.7-1.6-4-2.3-6.8-2.3h-11.8V877.6z
			 M247.1,897.6h15c1.9,0,3.6-0.4,5-1.3c1.4-0.9,2.5-1.9,3.2-3.1c0.7-1.3,1.1-2.5,1.1-3.9c0-1.5-0.5-3-1.6-4.4
			c-1.1-1.4-2.5-2.5-4.4-3.2c-1.9-0.7-4.4-1.1-7.7-1.1h-10.7L247.1,897.6L247.1,897.6z"/>
		<path class="st2" d="M390.8,880c0,4-0.8,7.6-2.4,11c-1.6,3.4-3.8,6-6.6,7.9c-2.8,1.9-5.8,2.8-9.1,2.8c-4.8,0-9-2-12.6-6.1
			c-3.6-4.1-5.5-9.3-5.5-15.6c0-6.4,1.8-11.6,5.5-15.7c3.6-4,7.9-6.1,12.6-6.1c3.2,0,6.2,0.9,9,2.8c2.8,1.9,5,4.5,6.6,7.9
			C390,872.3,390.8,876,390.8,880z M387.8,880c0-4.8-1.4-9.2-4.2-13c-2.8-3.8-6.4-5.8-10.9-5.8c-4.2,0-7.7,1.8-10.7,5.5
			c-3,3.7-4.4,8.1-4.4,13.3c0,5.5,1.5,10,4.7,13.5c3.1,3.5,6.6,5.2,10.5,5.2c4.5,0,8.1-1.9,10.9-5.7
			C386.4,889.2,387.8,884.9,387.8,880z"/>
		<path class="st2" d="M483.3,862.2v35.4H503v-11.8c0-0.7,0.1-1.2,0.4-1.5c0.3-0.3,0.6-0.5,1.1-0.5c0.4,0,0.8,0.1,1.1,0.4
			c0.3,0.3,0.4,0.8,0.4,1.5v14.8h-32.8c-0.7,0-1.2-0.1-1.5-0.4c-0.3-0.3-0.5-0.6-0.5-1.1c0-0.4,0.2-0.8,0.5-1.1
			c0.3-0.3,0.8-0.4,1.5-0.4h7.1v-35.4h-7.1c-0.7,0-1.2-0.1-1.5-0.4c-0.3-0.3-0.5-0.6-0.5-1.1c0-0.4,0.2-0.8,0.5-1.1
			c0.3-0.3,0.8-0.4,1.5-0.4h17.1c0.7,0,1.2,0.1,1.5,0.4s0.5,0.6,0.5,1.1c0,0.4-0.2,0.8-0.5,1.1c-0.3,0.3-0.8,0.4-1.5,0.4
			L483.3,862.2L483.3,862.2z"/>
		<path class="st2" d="M605.8,862.2v35.4H616c0.7,0,1.2,0.1,1.5,0.4c0.3,0.3,0.5,0.6,0.5,1.1c0,0.4-0.2,0.8-0.5,1.1
			c-0.3,0.3-0.8,0.4-1.5,0.4h-23.3c-0.7,0-1.2-0.1-1.5-0.4c-0.3-0.3-0.5-0.6-0.5-1.1c0-0.4,0.2-0.8,0.5-1.1c0.3-0.3,0.8-0.4,1.5-0.4
			h10.2v-35.4h-10.2c-0.7,0-1.2-0.1-1.5-0.4c-0.3-0.3-0.5-0.6-0.5-1.1c0-0.4,0.2-0.8,0.5-1.1c0.3-0.3,0.8-0.4,1.5-0.4H616
			c0.7,0,1.2,0.1,1.5,0.4c0.3,0.3,0.5,0.6,0.5,1.1c0,0.4-0.2,0.8-0.5,1.1c-0.3,0.3-0.8,0.4-1.5,0.4L605.8,862.2L605.8,862.2z"/>
		<path class="st2" d="M722.3,900.6h-4.1l-14.9-38.4H701c-0.5,0-0.9-0.1-1.2-0.2c-0.2-0.1-0.4-0.3-0.6-0.5c-0.2-0.2-0.2-0.5-0.2-0.8
			s0.1-0.5,0.2-0.8c0.2-0.2,0.3-0.4,0.6-0.5c0.2-0.1,0.6-0.2,1.2-0.2H712c0.6,0,1,0.1,1.2,0.2c0.2,0.1,0.4,0.3,0.6,0.5
			c0.2,0.2,0.2,0.5,0.2,0.8s-0.1,0.5-0.2,0.8c-0.2,0.2-0.4,0.4-0.6,0.5c-0.2,0.1-0.6,0.2-1.1,0.2h-5.7l13.8,35.4h0.2l13.6-35.4h-5.7
			c-0.6,0-1-0.1-1.2-0.2c-0.2-0.1-0.4-0.3-0.6-0.5c-0.2-0.2-0.2-0.5-0.2-0.8c0-0.3,0.1-0.5,0.2-0.8c0.2-0.2,0.4-0.4,0.6-0.5
			c0.2-0.1,0.6-0.2,1.2-0.2h11c0.6,0,1,0.1,1.2,0.2c0.2,0.1,0.4,0.3,0.6,0.5c0.2,0.2,0.2,0.5,0.2,0.8c0,0.3-0.1,0.5-0.2,0.8
			c-0.2,0.2-0.4,0.4-0.6,0.5c-0.2,0.1-0.6,0.2-1.2,0.2H737L722.3,900.6z"/>
		<path class="st2" d="M837.5,862.2v35.4h10.2c0.7,0,1.2,0.1,1.5,0.4c0.3,0.3,0.5,0.6,0.5,1.1c0,0.4-0.2,0.8-0.5,1.1
			c-0.3,0.3-0.8,0.4-1.5,0.4h-23.3c-0.7,0-1.2-0.1-1.5-0.4c-0.3-0.3-0.5-0.6-0.5-1.1c0-0.4,0.2-0.8,0.5-1.1c0.3-0.3,0.8-0.4,1.5-0.4
			h10.2v-35.4h-10.2c-0.7,0-1.2-0.1-1.5-0.4c-0.3-0.3-0.5-0.6-0.5-1.1c0-0.4,0.2-0.8,0.5-1.1c0.3-0.3,0.8-0.4,1.5-0.4h23.3
			c0.7,0,1.2,0.1,1.5,0.4c0.3,0.3,0.5,0.6,0.5,1.1c0,0.4-0.2,0.8-0.5,1.1c-0.3,0.3-0.8,0.4-1.5,0.4L837.5,862.2L837.5,862.2z"/>
		<path class="st2" d="M961.6,886.7H942l-4,10.9h5.7c0.7,0,1.2,0.1,1.5,0.4c0.3,0.3,0.5,0.6,0.5,1.1c0,0.4-0.2,0.8-0.5,1.1
			c-0.3,0.3-0.8,0.4-1.5,0.4h-11.1c-0.7,0-1.2-0.1-1.5-0.4c-0.3-0.3-0.5-0.6-0.5-1.1c0-0.4,0.2-0.8,0.5-1.1c0.3-0.3,0.8-0.4,1.5-0.4
			h2.3l13.1-35.4h-8.8c-0.7,0-1.2-0.1-1.5-0.4c-0.3-0.3-0.5-0.6-0.5-1.1c0-0.4,0.2-0.8,0.5-1.1c0.3-0.3,0.8-0.4,1.5-0.4h14.9
			l14.5,38.4h2.3c0.7,0,1.2,0.1,1.5,0.4s0.5,0.6,0.5,1.1c0,0.4-0.2,0.8-0.5,1.1c-0.3,0.3-0.8,0.4-1.5,0.4H960
			c-0.7,0-1.3-0.1-1.6-0.4c-0.3-0.3-0.5-0.6-0.5-1.1c0-0.4,0.2-0.8,0.5-1.1c0.3-0.3,0.8-0.4,1.6-0.4h5.7L961.6,886.7z M960.4,883.8
			l-8.2-21.6h-1.1l-8,21.6H960.4z"/>
	</g>
</g>
<g>
	<g>
		<linearGradient id="SVGID_1_" gradientUnits="userSpaceOnUse" x1="590.044" y1="230.8983" x2="525.0866" y2="555.685">
			<stop  offset="0" style="stop-color:#00A9AB"/>
			<stop  offset="7.990000e-02" style="stop-color:#27ABAB"/>
			<stop  offset="0.2619" style="stop-color:#79AEAC"/>
			<stop  offset="0.4113" style="stop-color:#B6B1AC"/>
			<stop  offset="0.5204" style="stop-color:#DCB2AC"/>
			<stop  offset="0.5777" style="stop-color:#EAB3AC"/>
			<stop  offset="0.8007" style="stop-color:#EAB3AC"/>
			<stop  offset="0.9488" style="stop-color:#EAB3AC"/>
		</linearGradient>
		<path class="st3" d="M700.5,393.3l0-90.5c0,0,8.5-54.8-101-54.8c-104.8,0-98.2,45.4-98.2,45.4l0.1,47.1l100,0v14.1l-139.7,0
			c0,0-24.9-2.8-44.4,18.9c8.7,2.7,16.6,5.7,22.6,8.7c0.5,0.2,0.9,0.5,1.4,0.7c6.7,2.6,13.1,5.4,18.3,8.4
			c17.1,6.9,35.9,11.8,75,19.7c11.8,2.4,33.4,12.2,60,26.1c11.1,3.5,24.9,6.9,39.6,10h10.8C644.7,447.2,700.5,448.1,700.5,393.3z
			 M544.3,315.6c-10,0-18-8-18-18c0-10,8-18,18-18c10,0,18,8,18,18C562.3,307.6,554.2,315.6,544.3,315.6z"/>
		<linearGradient id="SVGID_2_" gradientUnits="userSpaceOnUse" x1="781.946" y1="269.2787" x2="716.9887" y2="594.0654">
			<stop  offset="0" style="stop-color:#00A9AB"/>
			<stop  offset="7.990000e-02" style="stop-color:#27ABAB"/>
			<stop  offset="0.2619" style="stop-color:#79AEAC"/>
			<stop  offset="0.4113" style="stop-color:#B6B1AC"/>
			<stop  offset="0.5204" style="stop-color:#DCB2AC"/>
			<stop  offset="0.5777" style="stop-color:#EAB3AC"/>
			<stop  offset="0.8007" style="stop-color:#EAB3AC"/>
			<stop  offset="0.9488" style="stop-color:#EAB3AC"/>
		</linearGradient>
		<path class="st4" d="M748.8,351.9l-34.9,0l0,49.1c0,0,1.3,42-34.4,54.8c32.9,5.6,60.3,9.2,60.3,9.2s32.9,1.2,66.8,8
			c0.5-5.9,0.8-12.2,0.8-19.1C807.3,348.1,748.8,351.9,748.8,351.9z"/>
	</g>
	<g>
		<path class="st5" d="M613.1,447.2H634c-14.7-3.1-28.5-6.5-39.6-10C600.4,440.3,606.6,443.6,613.1,447.2z"/>
		<path class="st5" d="M739.7,465c0,0-27.4-3.6-60.3-9.2c-6.4,2.3-14.1,3.7-23.2,3.7l-21,0c46,25.9,98.1,57.5,138.9,82.8
			c14.5-10,28.8-29.8,32.3-69.3C772.6,466.1,739.7,465,739.7,465z"/>
	</g>
	<circle class="st6" cx="657.5" cy="609" r="18"/>
	<g>
		<linearGradient id="SVGID_3_" gradientUnits="userSpaceOnUse" x1="484.9073" y1="341.4794" x2="522.7991" y2="577.8521">
			<stop  offset="0" style="stop-color:#2C2437"/>
			<stop  offset="0.973" style="stop-color:#315675"/>
		</linearGradient>
		<path class="st7" d="M545.6,447.2l67.5,0c-6.5-3.5-12.7-6.9-18.7-10c0,0,0,0,0,0c-26.5-13.9-48.1-23.7-59.9-26.1
			c-39.1-7.9-57.9-12.8-74.9-19.7c0,0,0,0,0,0c0,0,0,0,0,0c-5.2-2.9-11.6-5.8-18.2-8.3c0,0,0,0,0,0c-8.4-3.9-16.1-7.7-23.9-9.4
			c-14.4,14.4-22.7,39.6-22.7,79.2c0,105.7,58.5,102,58.5,102l34.9,0l0-49.1C488,505.7,486.1,447.1,545.6,447.2z"/>
		<linearGradient id="SVGID_4_" gradientUnits="userSpaceOnUse" x1="601.2972" y1="322.8215" x2="639.189" y2="559.1941">
			<stop  offset="0" style="stop-color:#2C2437"/>
			<stop  offset="0.973" style="stop-color:#315675"/>
		</linearGradient>
		<path class="st8" d="M635.3,459.4l-78.2,0c0,0-55.7-0.9-55.7,53.8l0,45c10.8-3.5,25.2-10.2,31.4-12c12.2-3,43.4-5.4,63.4-5.6
			l20,0.8c18.9,0.9,27.2,7.4,44,10.4h0c0,0,0,0,0,0l80.1,0c0,0,17.1,1.9,34-9.7C733.4,517,681.3,485.4,635.3,459.4z"/>
	</g>
	<path class="st9" d="M609.3,544.3h4.2V540h-4l-0.4-4l-5.5-0.4l-0.4-14.9h1.1v-0.7c0,0-0.1,0-0.1,0c0,0,0,0,0.1,0c0.1,0,0.3,0,0.7,0
		c1.1-1.1-0.7-21.5,0.4-21.8s1.1-2.6,1.1-2.6H619c0,0,0-2.2,0-4c3.3,0,3.6-0.7,5.5-2.6c1.8-1.8-1.1-1.5-2.6-1.5
		c0.4-2.9-1.1-1.5-1.1-1.5l-1.8,2.2c0,0-5.5,0-7.6-0.4c-1.5-1.8-6.6-4-8.7-5.5c0.7-2.6-0.4-4.7-1.8-6.6c-0.4-3.3-2.6-2.9-3.3-2.9
		c-3.6-0.4-2.6,5.1-2.2,5.8c-0.4,0.4,0,3.3,0,4c-2.8-0.9-10.9,6.6-10.9,6.6s-4.7,0-7.3-0.4c-2.2-2.6-1.8-0.7-1.8,0.4
		c-8.7,0.7,1.8,3.3,1.8,3.3s-0.7,1.1,0,3.3c1.8,0.7,10.9,0.4,10.9,0.4v4.7l1.5,0.4v6.2h0.7v15.3h0.4v1.5c0,0,1.1,0,2,0.2
		c0.4,0.7-1.1,11.3-1.1,11.3l-4.7,0.4l-0.7,2.9h-4l-0.4,3.6l0.1,1.1C590.7,543.7,600,543.9,609.3,544.3z"/>
	<path class="st2" d="M700.6,613.2l-0.1-47.1l-100,0v-14.1l59.6,0h0c-16.8-3-25.1-9.5-44-10.4l-20-0.8c-19.9,0.2-51.2,2.6-63.4,5.6
		c-6.2,1.8-20.6,8.5-31.4,12l0,45.5c0,0-8.5,54.8,101,54.8C707.1,658.6,700.6,613.2,700.6,613.2z M657.5,626.9c-10,0-18-8-18-18
		c0-10,8-18,18-18c10,0,18,8,18,18S667.4,626.9,657.5,626.9z"/>
</g>
</svg>
